<svg style="display:none">
<symbol id="icon-avatar" width="24" height="24" viewBox="0 0 24 24" fill="inherit" xmlns="http://www.w3.org/2000/svg">
<g clip-path="url(#clip0_28752_12688)">
<g clip-path="url(#clip1_28752_12688)">
<path d="M12.0127 1.93573C9.2557 1.93573 7.0127 4.17873 7.0127 6.93573C7.0127 9.69273 9.2557 11.9357 12.0127 11.9357C14.7697 11.9357 17.0127 9.69273 17.0127 6.93573C17.0127 4.17873 14.7697 1.93573 12.0127 1.93573ZM12.0127 9.93573C10.3587 9.93573 9.0127 8.58973 9.0127 6.93573C9.0127 5.28173 10.3587 3.93573 12.0127 3.93573C13.6667 3.93573 15.0127 5.28173 15.0127 6.93573C15.0127 8.58973 13.6667 9.93573 12.0127 9.93573ZM21.0127 20.9357V19.9357C21.0127 16.0767 17.8717 12.9357 14.0127 12.9357H10.0127C6.1527 12.9357 3.0127 16.0767 3.0127 19.9357V20.9357H5.0127V19.9357C5.0127 17.1787 7.2557 14.9357 10.0127 14.9357H14.0127C16.7697 14.9357 19.0127 17.1787 19.0127 19.9357V20.9357H21.0127Z" fill="#222222"/>
</g>
</g>
<defs>
<clipPath id="clip0_28752_12688">
<rect width="24" height="24" fill="white"/>
</clipPath>
<clipPath id="clip1_28752_12688">
<rect width="24" height="24" fill="white"/>
</clipPath>
</defs>
</symbol>

<symbol id="icon-basket"  width="24" height="29" viewBox="0 0 24 29" fill="inherit" xmlns="http://www.w3.org/2000/svg">
<g clip-path="url(#clip0_28752_12716)">
<path d="M17.8571 9.8V7.4H8.33333V9.8H17.8571ZM7.14286 24.2C6.51139 24.2 5.90578 24.4529 5.45927 24.9029C5.01275 25.353 4.7619 25.9635 4.7619 26.6C4.7619 27.2365 5.01275 27.847 5.45927 28.2971C5.90578 28.7471 6.51139 29 7.14286 29C7.77432 29 8.37993 28.7471 8.82644 28.2971C9.27296 27.847 9.52381 27.2365 9.52381 26.6C9.52381 25.9635 9.27296 25.353 8.82644 24.9029C8.37993 24.4529 7.77432 24.2 7.14286 24.2ZM19.0476 24.2C18.4162 24.2 17.8105 24.4529 17.364 24.9029C16.9175 25.353 16.6667 25.9635 16.6667 26.6C16.6667 27.2365 16.9175 27.847 17.364 28.2971C17.8105 28.7471 18.4162 29 19.0476 29C19.6791 29 20.2847 28.7471 20.7312 28.2971C21.1777 27.847 21.4286 27.2365 21.4286 26.6C21.4286 25.9635 21.1777 25.353 20.7312 24.9029C20.2847 24.4529 19.6791 24.2 19.0476 24.2ZM7.34524 20.3L7.38095 20.156L8.45238 18.2H17.3214C18.2143 18.2 19 17.708 19.4048 16.964L24 8.552L21.9286 7.4H21.9167L20.6071 9.8L17.3214 15.8H8.96428L8.80952 15.476L6.14286 9.8L5.0119 7.4L3.89286 5H0V7.4H2.38095L6.66667 16.508L5.05952 19.448C4.86905 19.784 4.7619 20.18 4.7619 20.6C4.7619 21.2365 5.01275 21.847 5.45927 22.2971C5.90578 22.7471 6.51139 23 7.14286 23H21.4286V20.6H7.64286C7.4881 20.6 7.34524 20.468 7.34524 20.3Z" fill="#222222"/>
</g>
<defs>
<clipPath id="clip0_28752_12716">
<rect width="24" height="29" fill="white"/>
</clipPath>
</defs>
</symbol>

<symbol id="icon-burger" width="24" height="24" viewBox="0 0 24 24" fill="inherit" xmlns="http://www.w3.org/2000/svg">
<rect x="1" y="4" width="22" height="3" rx="0.7" fill="#222222"/>
<rect x="1" y="16" width="13" height="3" rx="0.7" fill="#222222"/>
<rect x="1" y="10" width="22" height="3" rx="0.7" fill="#222222"/>
</symbol>

<symbol id="icon-catalog" width="24" height="24" viewBox="0 0 24 24" fill="inherit" xmlns="http://www.w3.org/2000/svg">
<rect x="1" y="4" width="22" height="3" rx="0.7" fill="white"/>
<rect x="1" y="16" width="22" height="3" rx="0.7" fill="white"/>
<rect x="1" y="10" width="22" height="3" rx="0.7" fill="white"/>
</symbol>

<symbol id="icon-instagram"  width="17" height="16" viewBox="0 0 17 16" fill="inherit" xmlns="http://www.w3.org/2000/svg">
<path d="M5.75063 8C5.75063 6.61934 6.92556 5.4998 8.37532 5.4998C9.82507 5.4998 11.0006 6.61934 11.0006 8C11.0006 9.38066 9.82507 10.5002 8.37532 10.5002C6.92556 10.5002 5.75063 9.38066 5.75063 8ZM4.33144 8C4.33144 10.127 6.14188 11.8512 8.37532 11.8512C10.6088 11.8512 12.4192 10.127 12.4192 8C12.4192 5.873 10.6088 4.14884 8.37532 4.14884C6.14188 4.14884 4.33144 5.873 4.33144 8ZM11.6342 3.99614C11.6342 4.17414 11.6895 4.34817 11.7933 4.49621C11.8971 4.64426 12.0446 4.75967 12.2173 4.82785C12.3899 4.89604 12.5799 4.91393 12.7633 4.87928C12.9466 4.84462 13.115 4.75897 13.2473 4.63315C13.3795 4.50733 13.4696 4.347 13.5061 4.17243C13.5426 3.99787 13.524 3.8169 13.4525 3.65242C13.3811 3.48794 13.26 3.34733 13.1046 3.24838C12.9493 3.14943 12.7666 3.09657 12.5797 3.0965H12.5793C12.3287 3.09661 12.0885 3.19142 11.9113 3.3601C11.7341 3.52878 11.6345 3.75754 11.6342 3.99614ZM5.19369 14.1048C4.42588 14.0715 4.00855 13.9497 3.73121 13.8468C3.36353 13.7105 3.10119 13.5481 2.82536 13.2858C2.54954 13.0235 2.3788 12.7739 2.23629 12.4237C2.12817 12.1597 2.00028 11.7622 1.96538 11.031C1.9272 10.2404 1.91957 10.0029 1.91957 8.00006C1.91957 5.9972 1.92783 5.76038 1.96538 4.96916C2.00034 4.23794 2.12918 3.84116 2.23629 3.57638C2.37943 3.22622 2.54991 2.97638 2.82536 2.7137C3.10081 2.45102 3.3629 2.28842 3.73121 2.1527C4.00842 2.04974 4.42588 1.92794 5.19369 1.8947C6.02381 1.85834 6.27317 1.85108 8.37532 1.85108C10.4775 1.85108 10.7271 1.85894 11.5579 1.8947C12.3257 1.928 12.7423 2.0507 13.0204 2.1527C13.388 2.28842 13.6504 2.45138 13.9262 2.7137C14.202 2.97602 14.3721 3.22622 14.5153 3.57638C14.6234 3.84038 14.7513 4.23794 14.7862 4.96916C14.8244 5.76038 14.832 5.9972 14.832 8.00006C14.832 10.0029 14.8244 10.2397 14.7862 11.031C14.7512 11.7622 14.6227 12.1596 14.5153 12.4237C14.3721 12.7739 14.2017 13.0237 13.9262 13.2858C13.6508 13.5479 13.388 13.7105 13.0204 13.8468C12.7432 13.9498 12.3257 14.0716 11.5579 14.1048C10.7278 14.1412 10.4784 14.1484 8.37532 14.1484C6.27223 14.1484 6.02356 14.1412 5.19369 14.1048ZM5.12848 0.54542C4.29011 0.58178 3.71722 0.70838 3.21692 0.89378C2.69879 1.08524 2.26016 1.3421 1.82186 1.75886C1.38355 2.17562 1.11453 2.594 0.913486 3.08744C0.718808 3.5642 0.585872 4.10948 0.547693 4.9079C0.508883 5.70758 0.5 5.96324 0.5 8C0.5 10.0368 0.508883 10.2924 0.547693 11.0921C0.585872 11.8906 0.718808 12.4358 0.913486 12.9126C1.11453 13.4057 1.38361 13.8246 1.82186 14.2411C2.2601 14.6577 2.69879 14.9142 3.21692 15.1062C3.71817 15.2916 4.29011 15.4182 5.12848 15.4546C5.96862 15.4909 6.23663 15.5 8.37532 15.5C10.514 15.5 10.7825 15.4915 11.6222 15.4546C12.4606 15.4182 13.0331 15.2916 13.5337 15.1062C14.0515 14.9142 14.4905 14.6579 14.9288 14.2411C15.3671 13.8244 15.6355 13.4057 15.8371 12.9126C16.0318 12.4358 16.1654 11.8905 16.2029 11.0921C16.2411 10.2918 16.25 10.0368 16.25 8C16.25 5.96324 16.2411 5.70758 16.2029 4.9079C16.1648 4.10942 16.0318 3.5639 15.8371 3.08744C15.6355 2.5943 15.3664 2.17628 14.9288 1.75886C14.4912 1.34144 14.0515 1.08524 13.5343 0.89378C13.0331 0.70838 12.4605 0.58118 11.6228 0.54542C10.7831 0.50906 10.5146 0.5 8.37595 0.5C6.23726 0.5 5.96862 0.50846 5.12848 0.54542Z" fill="#222222"/>
</symbol>

<symbol id="icon-left"  width="26" height="19" viewBox="0 0 26 19" fill="inherit" xmlns="http://www.w3.org/2000/svg">
<path d="M25.75 9H3.38043L10.1465 1.9378L8.8587 0.75L0.25 9.75L8.8587 18.75L10.0326 17.5761L3.38043 10.5H25.75V9Z" fill="white"/>
</symbol>

<symbol id="icon-right" width="26" height="19" viewBox="0 0 26 19" fill="inherit" xmlns="http://www.w3.org/2000/svg">
<path d="M0.25 9H22.6196L15.8535 1.9378L17.1413 0.75L25.75 9.75L17.1413 18.75L15.9674 17.5761L22.6196 10.5H0.25V9Z" fill="inherit"/>
</symbol>

<symbol id="icon-search" width="24" height="24" viewBox="0 0 24 24" fill="inherit" xmlns="http://www.w3.org/2000/svg">
<g clip-path="url(#clip0_28752_12662)">
<path d="M10.6977 18.3945C12.4739 18.3945 14.1068 17.7835 15.4096 16.7704L19.6394 21L21 19.6395L16.7701 15.4099C17.7843 14.1062 18.3953 12.4734 18.3953 10.6972C18.3953 6.45318 14.9419 3 10.6977 3C6.45336 3 3 6.45318 3 10.6972C3 14.9413 6.45336 18.3945 10.6977 18.3945ZM10.6977 4.92431C13.8816 4.92431 16.4709 7.51347 16.4709 10.6972C16.4709 13.881 13.8816 16.4702 10.6977 16.4702C7.51371 16.4702 4.92441 13.881 4.92441 10.6972C4.92441 7.51347 7.51371 4.92431 10.6977 4.92431Z" fill="inherit"/>
</g>
<defs>
<clipPath id="clip0_28752_12662">
<rect width="24" height="24" fill="inherit"/>
</clipPath>
</defs>
</symbol>

<symbol id="icon-whatsapp" width="30" height="31" viewBox="0 0 30 31" fill="inherit" xmlns="http://www.w3.org/2000/svg">
<path d="M30 15.1304C30 23.0491 23.407 29.4684 15.2727 29.4684C12.6903 29.4684 10.2643 28.8208 8.15367 27.6843L0 30.2264L2.65833 22.5337C1.31733 20.3733 0.545 17.8393 0.545 15.1304C0.545 7.2117 7.13867 0.79248 15.273 0.79248C23.4077 0.79248 30 7.2117 30 15.1304ZM15.2727 3.0759C8.44467 3.0759 2.89067 8.48358 2.89067 15.1304C2.89067 17.7684 3.767 20.211 5.24933 22.1982L3.70233 26.6747L8.46067 25.1909C10.4157 26.4504 12.7577 27.1849 15.273 27.1849C22.1 27.1849 27.655 21.7779 27.655 15.1307C27.6547 8.4839 22.1003 3.0759 15.2727 3.0759ZM22.7097 18.4326C22.6187 18.2864 22.3783 18.1981 22.0177 18.0225C21.6563 17.8468 19.881 16.9962 19.551 16.8798C19.22 16.7624 18.9787 16.7035 18.7383 17.0551C18.498 17.407 17.806 18.1981 17.595 18.4326C17.3843 18.6677 17.174 18.6972 16.8127 18.5212C16.452 18.3456 15.289 17.9741 13.91 16.7768C12.837 15.8457 12.1123 14.6954 11.9017 14.3435C11.6913 13.992 11.8797 13.802 12.06 13.627C12.2227 13.4694 12.4213 13.2166 12.6017 13.0115C12.7827 12.8061 12.8427 12.6599 12.9623 12.4251C13.0833 12.1906 13.023 11.9856 12.9323 11.8093C12.8423 11.6337 12.1197 9.90425 11.819 9.20078C11.5183 8.49731 11.218 8.61439 11.007 8.61439C10.7967 8.61439 10.5557 8.58496 10.315 8.58496C10.0743 8.58496 9.683 8.67293 9.352 9.02451C9.02133 9.3764 8.089 10.2267 8.089 11.9558C8.089 13.6852 9.382 15.3561 9.563 15.5906C9.74333 15.8247 12.0597 19.4889 15.7297 20.8962C19.4 22.3025 19.4 21.8332 20.062 21.7743C20.7233 21.7158 22.1973 20.9243 22.4993 20.1041C22.7993 19.2826 22.7993 18.5791 22.7097 18.4326Z" fill="#3CA255"/>
</symbol>

<symbol id="icon-phone-menu" width="24" height="24" viewBox="0 0 24 24" fill="inhert" xmlns="http://www.w3.org/2000/svg">
<path d="M16.7122 12.2933C16.3212 11.9023 15.6892 11.9023 15.2982 12.2933L13.7042 13.8872C12.9652 13.6672 11.5862 13.1672 10.7122 12.2933C9.83822 11.4193 9.33822 10.0402 9.11822 9.30125L10.7122 7.70725C11.1032 7.31625 11.1032 6.68425 10.7122 6.29325L6.71222 2.29325C6.32122 1.90225 5.68922 1.90225 5.29822 2.29325L2.58622 5.00525C2.20622 5.38525 1.99222 5.90725 2.00022 6.44025C2.02322 7.86425 2.40022 12.8103 6.29822 16.7083C10.1962 20.6063 15.1422 20.9823 16.5672 21.0063C16.5722 21.0063 16.5902 21.0063 16.5952 21.0063C17.1232 21.0063 17.6222 20.7983 18.0002 20.4202L20.7122 17.7083C21.1032 17.3173 21.1032 16.6853 20.7122 16.2943L16.7122 12.2933ZM16.5852 19.0052C15.3372 18.9842 11.0672 18.6493 7.71222 15.2933C4.34622 11.9272 4.02022 7.64225 4.00022 6.41925L6.00522 4.41425L8.59122 7.00025L7.29822 8.29325C7.05922 8.53125 6.95722 8.87525 7.02622 9.20525C7.05022 9.32025 7.63722 12.0472 9.29722 13.7072C10.9572 15.3672 13.6842 15.9542 13.7992 15.9782C14.1322 16.0492 14.4732 15.9462 14.7112 15.7072L16.0052 14.4142L18.5912 17.0002L16.5852 19.0052Z" fill="#222222"/>
</symbol>

<symbol id="icon-right-menu" width="24" height="24" viewBox="0 0 24 24" fill="inherit" xmlns="http://www.w3.org/2000/svg">
<path d="M10.293 17L11.707 18.414L18.414 11.707L11.707 5L10.293 6.414L14.586 10.707H5V12.707H14.586L10.293 17Z" fill="#222222"/>
</symbol>

<symbol id="icon-close" width="24" height="24" viewBox="0 0 24 24" fill="inherit" xmlns="http://www.w3.org/2000/svg">
<path d="M17.2502 4L11.9994 9.24954L6.74984 4L5 5.74985L10.2495 10.9994L5 16.2489L6.74984 17.9988L11.9994 12.7492L17.2502 17.9988L19 16.2489L13.7505 10.9994L19 5.74985L17.2502 4Z" fill="#222222"/>
</symbol>
</svg>